<svg width="200" height="60" viewBox="0 0 200 60" fill="none" xmlns="http://www.w3.org/2000/svg">
  <!-- Circular background -->
  <circle cx="30" cy="30" r="28" fill="#2E8B57" stroke="white" stroke-width="2"/>
  
  <!-- Leaf designs inside circle -->
  <path d="M15 30 C15 20, 25 15, 30 20 C35 15, 45 20, 45 30 C45 35, 35 40, 30 35 C25 40, 15 35, 15 30 Z" fill="white"/>
  <path d="M22 25 C22 22, 26 20, 30 22 C34 20, 38 22, 38 25 C38 28, 34 30, 30 28 C26 30, 22 28, 22 25 Z" fill="#2E8B57"/>
  
  <!-- Text -->
  <text x="70" y="25" font-family="Plus Jakarta Sans, sans-serif" font-size="18" font-weight="bold" fill="#2E8B57">Krishi</text>
  <text x="70" y="45" font-family="Plus Jakarta Sans, sans-serif" font-size="18" font-weight="bold" fill="#2E8B57">Sakhi</text>
</svg>